<svg width="154" height="91" viewBox="0 0 154 91" fill="none" xmlns="http://www.w3.org/2000/svg">
<path d="M77.058 0.0902176C76.8165 0.232475 76.5652 0.516975 76.3623 0.87735C76.2174 1.1334 76.2174 2.18607 76.2657 13.0636C76.2947 19.6072 76.372 38.7448 76.43 55.5969C76.4879 72.449 76.5652 87.1199 76.6039 88.22L76.6715 90.2115L76.9904 90.24C77.3382 90.2779 79.0968 89.9555 79.7925 89.7279C80.8844 89.3675 83.2227 87.9734 84.3145 87.0251C85.416 86.0673 89.1264 82.2359 90.6627 80.4625C91.9478 78.9831 92.8078 77.5132 93.3103 75.9579C93.6001 75.0285 93.5905 75.0285 95.0688 75.1233C95.6292 75.1518 96.7694 75.2087 97.5907 75.2371C99.2913 75.294 99.5039 75.2371 99.6778 74.7061C99.7454 74.5164 99.8131 73.3689 99.8421 72.0507C99.9 69.8126 99.9097 69.7178 100.113 69.5566C100.296 69.4143 100.625 69.3953 103.736 69.3953H107.157L107.253 69.1488C107.311 69.0065 107.35 67.4512 107.35 65.4123C107.35 61.7327 107.379 61.4672 107.775 61.3818C107.891 61.3534 109.92 61.2965 112.307 61.2585C117.273 61.1732 116.964 61.2301 116.964 60.3102C116.964 60.0162 116.945 58.3281 116.925 56.5642C116.887 53.3683 116.887 53.3588 117.099 53.1502C117.302 52.9415 117.37 52.9415 121.196 52.8751C123.331 52.8372 125.225 52.7803 125.409 52.7424L125.737 52.695L125.67 51.2535C125.641 50.4569 125.583 48.38 125.554 46.635C125.496 43.5245 125.496 43.4581 125.689 43.2874C125.795 43.1925 126.897 42.7753 128.143 42.3675C131.525 41.2484 133.487 40.4423 135.371 39.3802C135.719 39.181 136.144 38.944 136.327 38.8396C137.197 38.356 139.226 36.9335 140.154 36.1653C141.265 35.2454 141.613 34.9324 142.54 34.0031C144.28 32.2676 144.724 31.4615 144.106 31.1865C143.787 31.0442 142.734 30.902 141.99 30.8925C141.671 30.883 141.11 30.8261 140.733 30.7597L140.057 30.6364L140.589 30.1243C140.878 29.8398 142.038 28.8251 143.149 27.8578C145.632 25.7145 148.174 23.4385 148.56 23.0117C148.724 22.8316 149.178 22.3289 149.584 21.8832C151.324 19.9676 153.556 17.0277 153.72 16.4113C153.768 16.2121 153.855 15.8707 153.903 15.6526L154 15.2448L153.594 15.1405C152.705 14.8939 152.29 14.8844 148.947 15.0077C147.033 15.0741 143.449 15.1594 140.975 15.1879C138.501 15.2258 135.11 15.2638 133.438 15.2922C131.767 15.3207 126.53 15.3586 121.795 15.387C112.935 15.4439 102.461 15.5767 99.5715 15.6715C95.5133 15.8043 91.3584 15.9086 90.112 15.9086C87.6964 15.9181 87.049 16.1742 85.4547 17.7484C84.2952 18.8959 83.7541 19.6072 83.2806 20.6124C82.2854 22.7462 82.2468 25.4774 83.184 27.431C83.7058 28.5216 85.3871 30.4373 86.5272 31.2244C88.45 32.5616 89.7351 32.7892 95.4553 32.7892C98.9531 32.7892 98.9918 32.7797 99.3783 32.5711C99.5908 32.4573 99.7648 32.296 99.7648 32.2202C99.7648 31.9831 98.9145 31.5563 97.9386 31.3287C97.4168 31.196 96.9723 31.0822 96.953 31.0632C96.9337 31.0442 97.4554 30.2476 98.0932 29.2898C99.0981 27.8104 99.2913 27.5828 99.3879 27.7155C99.4942 27.8578 99.6778 28.4173 100.19 30.0959C100.296 30.4657 100.48 30.8451 100.586 30.9399C100.77 31.1011 100.789 31.1011 100.963 30.9494C101.069 30.8546 101.175 30.5511 101.243 30.1433C101.359 29.4889 101.301 28.8251 100.973 26.9569C100.915 26.6439 100.789 25.7904 100.683 25.0602C100.306 22.3858 99.8324 21.172 98.2767 18.8959C97.3781 17.5967 97.3685 17.6251 98.6536 17.8053C100.412 18.0424 100.953 18.2795 102.847 19.6261C105.108 21.2289 106.702 23.1919 107.35 25.1645C107.746 26.3879 107.872 27.45 107.804 29.2329C107.727 31.452 107.33 32.8366 106.084 35.1506C104.838 37.455 103.91 38.7163 102.915 39.4561C102.113 40.0535 101.726 40.2527 100.441 40.7268C99.8034 40.9639 99.0111 41.2579 98.6729 41.3812C98.1705 41.5709 97.8902 41.6088 97.0786 41.6088C95.6775 41.5993 93.2716 41.3717 92.0831 41.1346C88.6336 40.4329 84.8749 38.4224 82.7106 36.1368C81.2322 34.5626 80.3239 32.9694 79.4447 30.3709L78.9519 28.9484L78.8552 26.9569C78.7973 25.8568 78.7103 20.0339 78.6523 14.0119C78.5944 7.98994 78.5074 2.49902 78.4494 1.82569C78.3238 0.317825 78.1982 0.0333176 77.6378 0.00486755C77.4252 -0.0140991 77.1643 0.0238342 77.058 0.0902176ZM93.0107 17.7105C94.5374 18.0898 95.1268 18.5166 96.4602 20.1667C98.0255 22.1013 98.2478 22.585 98.3347 24.4058C98.4313 26.312 97.9772 27.5828 96.7791 28.7682C95.7355 29.8019 94.4214 30.3709 92.5276 30.6175C90.2956 30.902 88.2761 30.1528 86.5465 28.3889C85.532 27.3457 84.9329 25.9801 84.9329 24.6903C84.9329 22.9738 85.9765 20.7452 87.4258 19.3416C88.2181 18.5735 89.0491 18.1372 90.3825 17.7958C91.5903 17.4829 92.0348 17.4639 93.0107 17.7105ZM86.0151 64.0941C87.2036 64.3501 88.0442 64.9286 88.624 65.8959C89.1554 66.7684 89.368 68.153 89.1651 69.3953C89.0395 70.1825 88.4887 71.311 88.0442 71.6714C87.2712 72.2973 85.6576 72.5913 84.6141 72.2973C83.3966 71.9464 81.7733 70.5618 81.2419 69.4238C80.6041 68.0392 80.8071 66.2563 81.7153 65.308C82.6912 64.2838 84.4981 63.7811 86.0151 64.0941Z" fill="#2C2B4B"/>
<path d="M90.0056 23.0497C89.6675 23.3437 89.6288 23.4101 89.5902 23.9411C89.5612 24.3584 89.5998 24.605 89.7158 24.8515C90.0636 25.5723 91.0395 26.1697 91.6289 26.018C92.0058 25.9327 92.4792 25.4869 92.6725 25.0602C92.8174 24.7472 92.8271 24.5955 92.7594 24.33C92.6242 23.8558 92.2956 23.4101 91.8125 23.0497C91.455 22.7841 91.3101 22.7367 90.8849 22.7367C90.4501 22.7367 90.3245 22.7841 90.0056 23.0497Z" fill="#2C2B4B"/>
<path d="M84.2952 66.8443C84.1889 66.9012 83.9763 67.1193 83.841 67.3374C83.2999 68.1435 83.5415 69.1772 84.3628 69.585C85.1454 69.9833 85.9378 69.6988 86.2856 68.8927C86.5948 68.1909 86.3822 67.4986 85.6865 66.996C85.387 66.7779 84.5947 66.6926 84.2952 66.8443Z" fill="#2C2B4B"/>
<path d="M72.9997 0.137627C72.8935 0.166077 72.7292 0.251427 72.6229 0.34626C72.1784 0.725601 72.1784 0.697151 72.2751 7.47782C72.3717 14.3059 72.2557 27.6397 72.0915 29.6122C71.8982 31.8029 71.5697 32.9504 70.7581 34.1927C70.5745 34.4772 70.3522 34.7902 70.246 34.8945C70.1493 34.9988 69.9078 35.3782 69.7145 35.7385C68.8932 37.2748 65.2601 40.2526 62.6609 41.5424C60.5159 42.5951 58.023 43.0028 55.1725 42.7658C53.6555 42.633 53.0275 42.4813 51.9356 41.9502C51.4622 41.7131 50.8244 41.457 50.5249 41.3622C49.8292 41.1631 49.2108 40.8217 48.1479 40.0345C45.6067 38.1568 44.0897 35.9946 43.4423 33.3487C43.0945 31.8977 43.0558 31.5563 43.0558 29.9441C43.0655 27.5638 43.4037 26.1033 44.3989 24.1118C45.6357 21.6461 47.4812 20.0908 50.293 19.152C51.3172 18.8106 51.8583 18.7062 52.1385 18.82C52.3318 18.8959 52.3125 18.9528 51.6168 20.3658C50.3123 23.0212 50.0225 24.4817 50.0128 28.5406L50.0031 31.158L50.235 31.4046C50.6988 31.8977 50.9404 31.6227 51.153 30.3709C51.3172 29.3467 51.3752 29.1855 51.5685 29.1855C51.6844 29.1855 53.1338 30.295 53.4333 30.608C53.4623 30.6364 53.8198 30.9304 54.2256 31.2528C54.6314 31.5848 54.989 31.9072 55.0179 31.9831C55.0856 32.1727 54.8054 32.3624 54.1097 32.59C53.7618 32.7038 53.4333 32.8271 53.385 32.865C53.2014 32.9883 52.8536 33.472 52.8536 33.6047C52.8536 33.9462 55.1049 33.8418 57.1533 33.4056C58.4095 33.1401 61.7623 32.2107 62.516 31.9167C64.9123 30.9968 67.2892 28.5311 67.8787 26.3404C67.9849 25.9611 68.0236 25.2688 68.0236 23.8937V21.9591L67.4825 21.0012C66.6805 19.5787 66.323 19.0666 65.7143 18.4407C64.748 17.4355 63.6852 16.8095 62.2454 16.3638C60.6801 15.8896 61.1826 15.9086 44.4472 15.8233C5.29502 15.6146 0.425147 15.5957 0.212574 15.7095C0.00966244 15.8138 0 15.8896 0 16.9233V18.0329L1.03388 19.8348C3.25624 23.742 4.61865 25.5723 7.0246 27.8673C8.76383 29.5363 10.0103 30.5131 12.4549 32.1253C13.2762 32.6754 13.9719 33.1685 13.9816 33.2254C14.0395 33.4151 13.624 33.453 11.421 33.453C9.68177 33.453 9.20831 33.4815 8.98607 33.5953C8.82181 33.6806 8.6962 33.8039 8.6962 33.8798C8.6962 34.6764 10.2132 36.7248 11.8848 38.1663C14.7545 40.651 17.8562 41.8743 23.2285 42.652C24.9388 42.8985 25.2866 42.9934 25.4509 43.2494C25.5475 43.3822 25.6345 43.9607 25.7021 44.8806C25.7601 45.6582 25.8664 46.8816 25.9437 47.5834C26.3688 51.3673 26.4461 51.6802 27.0838 51.9742C27.3834 52.1165 28.0887 52.1828 31.8861 52.4199C34.6495 52.5906 34.6882 52.6001 34.7848 52.8277C34.9007 53.1217 35.1906 56.8108 35.2293 58.6316C35.2486 59.4661 35.2679 60.1774 35.2679 60.2153C35.2679 60.3765 35.9153 60.5947 36.6496 60.6705C37.5772 60.7749 39.9445 60.9361 41.964 61.0499C43.0945 61.1068 43.4327 61.1542 43.5583 61.2775C43.6936 61.4102 43.7322 61.8749 43.8385 64.3027C43.9834 67.7926 43.9931 67.8969 44.3603 68.3047C44.7564 68.741 45.1139 68.7979 48.2929 68.9211C49.7423 68.978 50.9984 69.0539 51.0757 69.0824C51.2882 69.1582 51.3752 69.6703 51.5974 72.1929C51.7134 73.4922 51.868 74.6871 51.9356 74.8483C52.2352 75.5596 52.6506 75.6544 55.3851 75.6639C56.7668 75.6639 57.6558 75.7113 57.878 75.7777C58.2742 75.9104 58.4095 76.157 58.796 77.4088C59.4047 79.3435 60.7188 81.3634 62.5643 83.1937C64.9799 85.5741 67.2892 87.3854 68.9995 88.2295C70.188 88.8174 73.3089 90.0692 73.5795 90.0692C74.0916 90.0692 74.0626 91.6909 74.0723 64.3311C74.0819 39.5509 74.1206 34.6005 74.4105 27.5733C74.4684 26.1887 74.5361 19.7115 74.5651 13.1774L74.6037 1.29461L74.4008 0.867851C74.2849 0.630768 74.0916 0.384201 73.9757 0.308327C73.7244 0.156593 73.2606 0.0712433 72.9997 0.137627ZM60.2743 18.4691C61.2502 18.6019 62.5836 19.2942 63.6562 20.2331C64.5161 20.9633 65.3568 22.3858 65.608 23.5049C65.7626 24.1877 65.6853 25.5723 65.4727 26.1982C64.6804 28.4363 63.3373 29.8493 61.4241 30.4373C60.4579 30.7313 58.4384 30.9209 57.6848 30.7882C55.6363 30.4278 53.4816 28.6164 52.7279 26.6249C51.839 24.292 52.3125 22.4807 54.3029 20.6219C55.3755 19.6072 57.2113 18.7537 58.8829 18.4786C59.5593 18.3648 59.5883 18.3648 60.2743 18.4691ZM67.5695 64.701C68.7096 65.0424 69.6082 65.7726 70.13 66.7968C70.5068 67.5366 70.6518 68.2004 70.6614 69.1962C70.6711 69.9548 70.6518 70.0781 70.3232 70.7514C69.8788 71.6619 69.1638 72.43 68.4777 72.724C66.1974 73.7103 62.6513 71.3963 62.2744 68.6746C62.0522 67.0055 63.26 65.2226 64.9606 64.701C65.5114 64.5303 66.9994 64.5303 67.5695 64.701Z" fill="#2C2B4B"/>
<path d="M58.5061 22.9075C57.8201 23.1351 57.4433 23.6851 57.4529 24.4248C57.4723 25.6861 58.4095 26.3974 59.7333 26.1508C60.2937 26.0465 60.6415 25.781 60.8348 25.3258C60.9991 24.9559 61.0087 24.3205 60.8638 24.036C60.6415 23.6093 60.0521 23.1066 59.5497 22.9265C59.2598 22.8221 59.0183 22.7368 59.0086 22.7368C58.9989 22.7463 58.7767 22.8221 58.5061 22.9075Z" fill="#2C2B4B"/>
<path d="M65.8495 67.0149C65.2408 67.2615 65.0379 68.2004 65.4147 68.9591C65.9268 70.0022 66.8931 70.3626 67.5791 69.7746C68.1878 69.2436 68.2651 68.3995 67.782 67.6693C67.3762 67.0718 66.4776 66.7684 65.8495 67.0149Z" fill="#2C2B4B"/>
</svg>
